HIERARCHY
ROOT Hips
{
	OFFSET 0.00 0.00 0.00
	CHANNELS 6 Xposition Yposition Zposition Xrotation Yrotation Zrotation
	JOINT Spine
	{
		OFFSET 0.00000 1.15266 1.72900
		CHANNELS 3 Xrotation Yrotation Zrotation
		JOINT Spine1
		{
			OFFSET 0.00000 0.40032 2.27031
			CHANNELS 3 Xrotation Yrotation Zrotation
			JOINT Spine2
			{
				OFFSET 0.00000 0.20092 2.29656
				CHANNELS 3 Xrotation Yrotation Zrotation
				JOINT Spine3
				{
					OFFSET 0.00000 0.00000 2.30533
					CHANNELS 3 Xrotation Yrotation Zrotation
					JOINT Neck
					{
						OFFSET 0.00000 -0.86449 6.05149
						CHANNELS 3 Xrotation Yrotation Zrotation
						JOINT Head
						{
							OFFSET 0.00000 -0.55043 3.12167
							CHANNELS 3 Xrotation Yrotation Zrotation
							End Site
							{
								OFFSET 0.00000 0.00000 3.73175
							}
						}
					}
					JOINT RightShoulder
					{
						OFFSET -0.78828 -1.31380 4.25672
						CHANNELS 3 Xrotation Yrotation Zrotation
						JOINT RightArm
						{
							OFFSET -3.91513 0.00000 0.00000
							CHANNELS 3 Xrotation Yrotation Zrotation
							JOINT RightForeArm
							{
								OFFSET -6.91491 0.00000 0.00000
								CHANNELS 3 Xrotation Yrotation Zrotation
								JOINT RightHand
								{
									OFFSET -6.09622 0.00000 0.00000
									CHANNELS 3 Xrotation Yrotation Zrotation
									JOINT RightHandEnd
									{
										OFFSET -1.74995 0.00000 0.00000
										CHANNELS 3 Xrotation Yrotation Zrotation
										End Site
										{
											OFFSET -1.74995 0.00000 0.00000
										}
									}
									JOINT RightHandThumb1
									{
										OFFSET -0.69998 -1.16663 -0.46665
										CHANNELS 3 Yrotation Xrotation Zrotation
										End Site
										{
											OFFSET -1.69032 -0.45292 0.00000
										}
									}
								}
							}
						}
					}
					JOINT LeftShoulder
					{
						OFFSET 0.78828 -1.31380 4.25672
						CHANNELS 3 Xrotation Yrotation Zrotation
						JOINT LeftArm
						{
							OFFSET 3.91513 0.00000 0.00000
							CHANNELS 3 Xrotation Yrotation Zrotation
							JOINT LeftForeArm
							{
								OFFSET 6.91491 0.00000 0.00000
								CHANNELS 3 Xrotation Yrotation Zrotation
								JOINT LeftHand
								{
									OFFSET 6.09622 0.00000 0.00000
									CHANNELS 3 Xrotation Yrotation Zrotation
									JOINT LeftHandEnd
									{
										OFFSET 1.74995 0.00000 0.00000
										CHANNELS 3 Xrotation Yrotation Zrotation
										End Site
										{
											OFFSET 1.74995 0.00000 0.00000
										}
									}
									JOINT LeftHandThumb1
									{
										OFFSET 0.69998 -1.16663 -0.46665
										CHANNELS 3 Yrotation Xrotation Zrotation
										End Site
										{
											OFFSET 1.69032 -0.45292 0.00000
										}
									}
								}
							}
						}
					}
				}
			}
		}
	}
	JOINT RightUpLeg
	{
		OFFSET -2.33857 0.00000 -0.68318
		CHANNELS 3 Xrotation Yrotation Zrotation
		JOINT RightLeg
		{
			OFFSET 0.00000 0.00000 -10.74496
			CHANNELS 3 Xrotation Yrotation Zrotation
			JOINT RightFoot
			{
				OFFSET 0.00000 0.00000 -10.93085
				CHANNELS 3 Xrotation Yrotation Zrotation
				JOINT RightToeBase
				{
					OFFSET 0.00000 -4.08727 -1.48765
					CHANNELS 3 Xrotation Yrotation Zrotation
					End Site
					{
						OFFSET 0.00000 -1.89187 -0.00000
					}
				}
			}
		}
	}
	JOINT LeftUpLeg
	{
		OFFSET 2.33857 0.00000 -0.68318
		CHANNELS 3 Xrotation Yrotation Zrotation
		JOINT LeftLeg
		{
			OFFSET 0.00000 0.00000 -10.74496
			CHANNELS 3 Xrotation Yrotation Zrotation
			JOINT LeftFoot
			{
				OFFSET 0.00000 0.00000 -10.93085
				CHANNELS 3 Xrotation Yrotation Zrotation
				JOINT LeftToeBase
				{
					OFFSET 0.00000 -4.08727 -1.48765
					CHANNELS 3 Xrotation Yrotation Zrotation
					End Site
					{
						OFFSET 0.00000 -1.89187 -0.00000
					}
				}
			}
		}
	}
}
MOTION
Frames: 15
Frame Time: 0.008342
 -0.1131 12.2322 24.7375 -5.2234 -1.7728 176.2107 0.9145 0.4798 0.1288 -0.3059 -0.9448 -0.0381 3.0673 1.4512 2.8079 -0.7944 -0.3415 0.3962 -4.0985 -5.0754 -18.4252 2.1881 -4.3219 -31.6236 -3.2809 3.0268 -5.1496 -8.4626 -4.8558 -1.5522 0.0000 0.0000 20.0532 -5.9833 -12.7701 1.8421 -0.0000 0.0000 0.0000 -0.0000 0.0000 0.0000 -2.8932 0.6200 7.6145 -18.7507 6.7022 -12.1613 -0.0000 0.0000 2.0058 -9.2322 -15.9334 10.2141 0.0000 -0.0000 -0.0000 0.0000 -0.0000 0.0000 -7.1474 0.1368 -10.6083 5.5308 0.0000 0.0000 -4.1395 4.5956 11.7360 -2.0590 0.0000 -0.0000 -7.7874 -11.4674 -7.4764 2.8311 0.0000 0.0000 -3.7270 11.2950 -2.0450 -1.1080 0.0000 -0.0000
 -0.1123 12.2340 24.7376 -5.2235 -1.7812 176.2297 0.9071 0.4711 0.1293 -0.3099 -0.9424 -0.0375 3.0786 1.4471 2.8048 -0.7924 -0.3380 0.3960 -4.1018 -5.0746 -18.4257 2.1819 -4.3249 -31.6167 -3.2795 3.0217 -5.1560 -8.4318 -4.8561 -1.5550 0.0000 0.0000 20.0156 -5.9516 -12.7674 1.8432 0.0000 0.0000 -0.0000 0.0000 -0.0000 0.0000 -2.9057 0.6145 7.6126 -18.7433 6.7088 -12.1518 -0.0000 0.0000 2.0072 -9.2460 -15.9267 10.2083 -0.0000 -0.0000 0.0000 0.0000 -0.0000 0.0000 -7.1439 0.1298 -10.6203 5.5325 0.0000 0.0000 -4.1417 4.5515 11.7185 -2.0457 0.0000 -0.0000 -7.7855 -11.4754 -7.4854 2.8257 0.0000 0.0000 -3.7221 11.2840 -2.0552 -1.1200 0.0000 -0.0000
 -0.1111 12.2367 24.7376 -5.2213 -1.7959 176.2563 0.8987 0.4559 0.1299 -0.3111 -0.9394 -0.0374 3.0887 1.4463 2.7999 -0.7892 -0.3377 0.3954 -4.1045 -5.0722 -18.4243 2.1753 -4.3301 -31.6075 -3.2782 3.0168 -5.1622 -8.3875 -4.8583 -1.5598 0.0000 0.0000 19.9633 -5.9065 -12.7646 1.8441 0.0000 0.0000 -0.0000 -0.0000 -0.0000 0.0000 -2.9101 0.6204 7.6195 -18.7425 6.7048 -12.1569 -0.0000 0.0000 2.0153 -9.2728 -15.9044 10.1971 0.0000 0.0000 -0.0000 0.0000 -0.0000 0.0000 -7.1323 0.1144 -10.6366 5.5257 0.0000 0.0000 -4.1384 4.5111 11.6902 -2.0409 0.0000 -0.0000 -7.7821 -11.4902 -7.5020 2.8223 0.0000 0.0000 -3.7197 11.2752 -2.0657 -1.1391 0.0000 -0.0000
 -0.1094 12.2409 24.7377 -5.1965 -1.8131 176.2897 0.9095 0.4406 0.1294 -0.3105 -0.9384 -0.0388 3.0967 1.4465 2.7963 -0.7844 -0.3372 0.3968 -4.1049 -5.0677 -18.4240 2.1690 -4.3375 -31.5948 -3.2735 3.0158 -5.1706 -8.3345 -4.8669 -1.5676 0.0000 0.0000 19.8972 -5.8461 -12.7623 1.8455 0.0000 -0.0000 -0.0000 0.0000 -0.0000 -0.0000 -2.9157 0.6218 7.6282 -18.7366 6.7074 -12.1617 -0.0000 0.0000 2.0245 -9.3090 -15.8783 10.1763 -0.0000 0.0000 -0.0000 -0.0000 0.0000 0.0000 -7.0889 0.0963 -10.6664 5.5081 0.0000 0.0000 -4.1331 4.4797 11.6614 -2.0467 0.0000 -0.0000 -7.7472 -11.5067 -7.5254 2.8077 0.0000 0.0000 -3.7159 11.2686 -2.0727 -1.1664 0.0000 -0.0000
 -0.1077 12.2449 24.7376 -5.1934 -1.8279 176.3246 0.8981 0.4244 0.1297 -0.3158 -0.9374 -0.0370 3.1135 1.4490 2.7936 -0.7808 -0.3358 0.3947 -4.1059 -5.0632 -18.4221 2.1603 -4.3459 -31.5792 -3.2722 3.0105 -5.1768 -8.2695 -4.8731 -1.5793 0.0000 0.0000 19.8196 -5.7735 -12.7612 1.8442 0.0000 -0.0000 0.0000 -0.0000 -0.0000 0.0000 -2.9223 0.6295 7.6428 -18.7293 6.7050 -12.1734 -0.0000 0.0000 2.0355 -9.3533 -15.8458 10.1487 -0.0000 0.0000 0.0000 0.0000 -0.0000 0.0000 -7.0717 0.0783 -10.7040 5.4925 0.0000 0.0000 -4.1261 4.4648 11.6299 -2.0661 0.0000 -0.0000 -7.7388 -11.5223 -7.5452 2.7978 0.0000 0.0000 -3.7109 11.2663 -2.0853 -1.2009 0.0000 -0.0000
 -0.1056 12.2500 24.7375 -5.1713 -1.8453 176.3635 0.9032 0.4087 0.1300 -0.3155 -0.9389 -0.0378 3.1235 1.4511 2.7929 -0.7755 -0.3336 0.3958 -4.1033 -5.0564 -18.4197 2.1527 -4.3568 -31.5618 -3.2690 3.0089 -5.1854 -8.1965 -4.8849 -1.5915 0.0000 0.0000 19.7301 -5.6911 -12.7615 1.8434 -0.0000 0.0000 -0.0000 0.0000 -0.0000 0.0000 -2.9293 0.6351 7.6571 -18.7178 6.7057 -12.1818 -0.0000 0.0000 2.0436 -9.4059 -15.8103 10.1150 0.0000 -0.0000 -0.0000 -0.0000 -0.0000 -0.0000 -7.0276 0.0559 -10.7456 5.4657 0.0000 0.0000 -4.1145 4.4691 11.5902 -2.1016 0.0000 -0.0000 -7.7061 -11.5400 -7.5729 2.7833 0.0000 0.0000 -3.7084 11.2698 -2.0913 -1.2429 0.0000 -0.0000
 -0.1035 12.2545 24.7371 -5.1708 -1.8564 176.3992 0.8884 0.3953 0.1332 -0.3196 -0.9396 -0.0377 3.1377 1.4542 2.7941 -0.7709 -0.3305 0.3955 -4.1008 -5.0479 -18.4162 2.1450 -4.3686 -31.5413 -3.2679 3.0046 -5.1937 -8.1194 -4.8955 -1.6036 0.0000 0.0000 19.6334 -5.6014 -12.7649 1.8385 0.0000 -0.0000 -0.0000 -0.0000 -0.0000 -0.0000 -2.9402 0.6464 7.6734 -18.7028 6.7024 -12.1901 -0.0000 0.0000 2.0489 -9.4603 -15.7725 10.0776 0.0000 -0.0000 -0.0000 -0.0000 0.0000 0.0000 -7.0131 0.0378 -10.7911 5.4450 0.0000 0.0000 -4.1033 4.4960 11.5495 -2.1531 0.0000 -0.0000 -7.7003 -11.5527 -7.5948 2.7753 0.0000 0.0000 -3.7057 11.2791 -2.0998 -1.2897 0.0000 -0.0000
 -0.1011 12.2603 24.7368 -5.1445 -1.8714 176.4362 0.8964 0.3814 0.1357 -0.3194 -0.9441 -0.0376 3.1487 1.4597 2.7975 -0.7667 -0.3279 0.3947 -4.0931 -5.0367 -18.4109 2.1406 -4.3835 -31.5193 -3.2663 3.0056 -5.2008 -8.0397 -4.9131 -1.6185 0.0000 0.0000 19.5335 -5.5091 -12.7711 1.8307 -0.0000 0.0000 0.0000 0.0000 0.0000 -0.0000 -2.9490 0.6546 7.6918 -18.6849 6.7039 -12.1968 -0.0000 0.0000 2.0508 -9.5144 -15.7359 10.0396 -0.0000 0.0000 -0.0000 0.0000 -0.0000 0.0000 -6.9599 0.0136 -10.8457 5.4043 0.0000 0.0000 -4.0840 4.5428 11.5101 -2.2210 0.0000 -0.0000 -7.6602 -11.5693 -7.6227 2.7587 0.0000 0.0000 -3.7051 11.2963 -2.1005 -1.3419 0.0000 -0.0000
 -0.0989 12.2647 24.7363 -5.1453 -1.8795 176.4665 0.8823 0.3698 0.1385 -0.3217 -0.9482 -0.0381 3.1585 1.4654 2.8049 -0.7623 -0.3229 0.3962 -4.0851 -5.0253 -18.4048 2.1359 -4.3981 -31.4956 -3.2675 3.0033 -5.2084 -7.9633 -4.9290 -1.6318 0.0000 0.0000 19.4346 -5.4192 -12.7799 1.8177 -0.0000 0.0000 -0.0000 -0.0000 -0.0000 0.0000 -2.9619 0.6683 7.7113 -18.6642 6.7020 -12.2035 -0.0000 0.0000 2.0509 -9.5654 -15.7009 9.9969 0.0000 -0.0000 0.0000 0.0000 -0.0000 0.0000 -6.9455 -0.0058 -10.8960 5.3740 0.0000 0.0000 -4.0655 4.6084 11.4681 -2.3006 0.0000 -0.0000 -7.6556 -11.5805 -7.6426 2.7531 0.0000 0.0000 -3.7055 11.3196 -2.1035 -1.3950 0.0000 -0.0000
 -0.0965 12.2693 24.7359 -5.1390 -1.8892 176.4931 0.8763 0.3574 0.1406 -0.3234 -0.9562 -0.0381 3.1662 1.4757 2.8152 -0.7582 -0.3181 0.3972 -4.0742 -5.0131 -18.3961 2.1351 -4.4138 -31.4714 -3.2723 3.0041 -5.2125 -7.8900 -4.9498 -1.6499 0.0000 0.0000 19.3429 -5.3343 -12.7916 1.8009 0.0000 -0.0000 -0.0000 0.0000 -0.0000 -0.0000 -2.9738 0.6813 7.7344 -18.6456 6.7040 -12.2121 -0.0000 0.0000 2.0489 -9.6086 -15.6718 9.9595 -0.0000 -0.0000 0.0000 0.0000 0.0000 0.0000 -6.9183 -0.0285 -10.9531 5.3318 0.0000 0.0000 -4.0411 4.6850 11.4337 -2.3885 0.0000 -0.0000 -7.6414 -11.5939 -7.6621 2.7458 0.0000 0.0000 -3.7078 11.3496 -2.1026 -1.4495 0.0000 -0.0000
 -0.0943 12.2739 24.7355 -5.1191 -1.8946 176.5115 0.8843 0.3486 0.1437 -0.3221 -0.9641 -0.0389 3.1708 1.4847 2.8305 -0.7549 -0.3127 0.3987 -4.0594 -4.9968 -18.3861 2.1381 -4.4313 -31.4465 -3.2757 3.0081 -5.2177 -7.8264 -4.9725 -1.6641 0.0000 0.0000 19.2591 -5.2605 -12.8074 1.7782 0.0000 0.0000 -0.0000 0.0000 -0.0000 -0.0000 -2.9837 0.6973 7.7582 -18.6283 6.7066 -12.2198 -0.0000 0.0000 2.0461 -9.6427 -15.6466 9.9256 0.0000 -0.0000 -0.0000 0.0000 -0.0000 0.0000 -6.8752 -0.0470 -11.0043 5.2845 0.0000 0.0000 -4.0161 4.7649 11.4027 -2.4788 0.0000 -0.0000 -7.6080 -11.6027 -7.6775 2.7344 0.0000 0.0000 -3.7106 11.3809 -2.0952 -1.5001 0.0000 -0.0000
 -0.0923 12.2771 24.7350 -5.1230 -1.8984 176.5208 0.8741 0.3363 0.1484 -0.3225 -0.9722 -0.0385 3.1730 1.4965 2.8483 -0.7507 -0.3045 0.3982 -4.0451 -4.9835 -18.3736 2.1430 -4.4474 -31.4213 -3.2851 3.0087 -5.2195 -7.7723 -4.9948 -1.6806 0.0000 0.0000 19.1895 -5.1972 -12.8244 1.7521 0.0000 -0.0000 0.0000 -0.0000 0.0000 0.0000 -2.9990 0.7129 7.7807 -18.6114 6.7098 -12.2206 -0.0000 0.0000 2.0373 -9.6628 -15.6318 9.9008 0.0000 -0.0000 0.0000 -0.0000 0.0000 0.0000 -6.8636 -0.0653 -11.0491 5.2424 0.0000 0.0000 -3.9894 4.8402 11.3759 -2.5662 0.0000 -0.0000 -7.6056 -11.6118 -7.6868 2.7329 0.0000 0.0000 -3.7154 11.4143 -2.0876 -1.5467 0.0000 -0.0000
 -0.0904 12.2797 24.7347 -5.1260 -1.9030 176.5228 0.8670 0.3231 0.1510 -0.3218 -0.9830 -0.0387 3.1742 1.5111 2.8712 -0.7475 -0.2973 0.3994 -4.0291 -4.9675 -18.3611 2.1516 -4.4641 -31.3960 -3.2950 3.0091 -5.2212 -7.7299 -5.0144 -1.6975 0.0000 0.0000 19.1359 -5.1502 -12.8461 1.7220 -0.0000 0.0000 -0.0000 0.0000 -0.0000 0.0000 -3.0116 0.7328 7.8045 -18.6025 6.7142 -12.2253 -0.0000 0.0000 2.0317 -9.6727 -15.6232 9.8828 0.0000 0.0000 -0.0000 -0.0000 0.0000 0.0000 -6.8507 -0.0842 -11.0909 5.1979 0.0000 0.0000 -3.9613 4.9012 11.3575 -2.6442 0.0000 -0.0000 -7.6022 -11.6221 -7.6902 2.7331 0.0000 0.0000 -3.7209 11.4469 -2.0801 -1.5875 0.0000 -0.0000
 -0.0885 12.2817 24.7345 -5.1291 -1.9077 176.5170 0.8619 0.3075 0.1532 -0.3219 -0.9939 -0.0391 3.1759 1.5277 2.8968 -0.7447 -0.2905 0.4011 -4.0122 -4.9508 -18.3466 2.1626 -4.4803 -31.3713 -3.3067 3.0100 -5.2215 -7.6982 -5.0336 -1.7142 0.0000 0.0000 19.0984 -5.1176 -12.8679 1.6906 -0.0000 0.0000 -0.0000 -0.0000 -0.0000 0.0000 -3.0242 0.7531 7.8289 -18.5985 6.7221 -12.2286 -0.0000 0.0000 2.0265 -9.6695 -15.6229 9.8744 -0.0000 -0.0000 0.0000 0.0000 0.0000 0.0000 -6.8383 -0.1027 -11.1239 5.1524 0.0000 0.0000 -3.9327 4.9406 11.3442 -2.7077 0.0000 -0.0000 -7.5979 -11.6331 -7.6884 2.7334 0.0000 0.0000 -3.7264 11.4751 -2.0710 -1.6209 0.0000 -0.0000
 -0.0868 12.2832 24.7345 -5.1329 -1.9128 176.5027 0.8587 0.2896 0.1563 -0.3229 -1.0043 -0.0389 3.1781 1.5449 2.9231 -0.7419 -0.2836 0.4029 -3.9953 -4.9334 -18.3297 2.1759 -4.4962 -31.3473 -3.3203 3.0118 -5.2205 -7.6762 -5.0524 -1.7295 0.0000 0.0000 19.0751 -5.0993 -12.8892 1.6622 0.0000 -0.0000 -0.0000 0.0000 -0.0000 -0.0000 -3.0364 0.7752 7.8545 -18.6024 6.7319 -12.2300 -0.0000 0.0000 2.0209 -9.6577 -15.6286 9.8774 -0.0000 -0.0000 0.0000 0.0000 -0.0000 0.0000 -6.8278 -0.1208 -11.1461 5.1081 0.0000 0.0000 -3.9046 4.9530 11.3354 -2.7537 0.0000 -0.0000 -7.5932 -11.6450 -7.6824 2.7343 0.0000 0.0000 -3.7322 11.4962 -2.0595 -1.6465 0.0000 -0.0000
